<svg id="svg" version="1.1" xmlns="http://www.w3.org/2000/svg" xmlns:xlink="http://www.w3.org/1999/xlink" width="400" height="400" viewBox="0, 0, 400,400"><g id="svgg"><path id="path0" d="M198.830 57.464 C 198.342 57.806,196.560 58.855,194.871 59.795 C 193.182 60.736,189.010 63.078,185.600 65.001 C 182.190 66.923,178.590 68.944,177.600 69.490 C 176.610 70.037,175.080 70.893,174.200 71.393 C 172.638 72.280,168.804 74.367,166.000 75.857 C 165.230 76.265,164.510 76.700,164.400 76.822 C 164.290 76.945,163.030 77.685,161.600 78.467 C 160.170 79.249,158.190 80.344,157.200 80.900 C 155.282 81.976,142.078 89.280,138.400 91.298 C 137.190 91.963,136.020 92.643,135.800 92.810 C 135.580 92.977,131.890 95.043,127.600 97.400 C 123.310 99.757,119.620 101.823,119.400 101.990 C 119.030 102.271,118.106 102.786,112.000 106.109 C 110.790 106.767,109.620 107.439,109.400 107.602 C 109.180 107.765,107.785 108.552,106.300 109.349 C 97.154 114.263,91.610 117.332,89.641 118.571 C 88.848 119.070,87.030 120.112,85.600 120.887 C 84.170 121.662,82.010 122.847,80.800 123.519 L 78.600 124.742 78.499 199.506 L 78.398 274.269 80.499 275.330 C 82.507 276.344,85.131 277.788,88.600 279.788 C 89.480 280.295,91.100 281.210,92.200 281.821 C 93.300 282.432,94.766 283.249,95.459 283.636 C 96.151 284.023,98.491 285.281,100.659 286.431 C 102.826 287.581,104.780 288.652,105.000 288.811 C 105.220 288.969,106.570 289.727,108.000 290.495 C 109.430 291.263,111.320 292.300,112.200 292.799 C 115.447 294.643,120.352 297.374,126.000 300.486 C 129.190 302.243,133.780 304.807,136.200 306.185 C 138.620 307.563,141.500 309.188,142.600 309.797 C 143.700 310.406,146.220 311.806,148.200 312.909 C 150.180 314.012,152.700 315.404,153.800 316.004 C 157.810 318.188,159.809 319.314,160.200 319.608 C 160.420 319.773,162.220 320.805,164.200 321.901 C 166.180 322.998,168.520 324.303,169.400 324.801 C 170.280 325.300,171.900 326.200,173.000 326.801 C 178.214 329.651,192.645 337.726,193.000 337.993 C 193.220 338.159,194.480 338.884,195.800 339.605 C 197.120 340.326,198.528 341.141,198.928 341.416 C 199.585 341.866,204.072 339.878,206.600 338.017 C 206.820 337.855,208.754 336.792,210.899 335.654 C 215.167 333.390,217.024 332.372,221.706 329.730 C 224.648 328.070,225.822 327.417,230.300 324.955 C 231.345 324.380,232.920 323.504,233.800 323.007 C 242.097 318.321,244.883 316.753,246.600 315.803 C 247.700 315.194,250.130 313.843,252.000 312.800 C 253.870 311.757,256.300 310.406,257.400 309.798 C 258.500 309.190,259.580 308.560,259.800 308.397 C 260.020 308.234,261.370 307.473,262.800 306.704 C 264.230 305.936,266.255 304.833,267.300 304.254 C 268.345 303.674,270.055 302.726,271.100 302.147 C 272.145 301.567,273.990 300.555,275.200 299.899 C 276.410 299.242,279.470 297.528,282.000 296.091 C 284.530 294.654,287.230 293.122,288.000 292.685 C 288.770 292.249,290.390 291.355,291.600 290.699 C 292.810 290.044,294.790 288.963,296.000 288.298 C 298.203 287.088,298.699 286.813,305.400 283.102 C 307.380 282.006,309.180 280.970,309.400 280.800 C 309.620 280.630,311.510 279.544,313.600 278.385 C 315.690 277.227,318.300 275.779,319.400 275.168 L 321.400 274.058 321.400 199.395 L 321.400 124.733 318.000 122.919 C 316.130 121.922,312.837 120.047,310.681 118.753 C 308.526 117.459,306.675 116.400,306.567 116.400 C 306.459 116.400,304.465 115.320,302.135 114.000 C 299.805 112.680,297.828 111.600,297.742 111.600 C 297.655 111.600,296.913 111.177,296.092 110.661 C 295.271 110.144,293.430 109.089,292.000 108.315 C 289.181 106.790,288.499 106.409,281.600 102.493 C 279.070 101.057,276.100 99.393,275.000 98.796 C 273.900 98.198,272.280 97.300,271.400 96.800 C 269.853 95.921,266.982 94.357,262.400 91.896 C 261.190 91.246,260.020 90.578,259.800 90.410 C 259.580 90.243,258.410 89.561,257.200 88.896 C 255.990 88.230,251.220 85.571,246.600 82.987 C 241.980 80.403,237.480 77.896,236.600 77.418 C 231.313 74.541,229.355 73.450,229.000 73.185 C 228.780 73.020,227.610 72.350,226.400 71.696 C 225.190 71.042,223.390 70.058,222.400 69.509 C 221.410 68.960,219.520 67.922,218.200 67.202 C 216.880 66.483,215.620 65.764,215.400 65.605 C 215.022 65.332,212.886 64.157,207.400 61.206 C 206.080 60.496,204.820 59.778,204.600 59.610 C 202.256 57.826,199.680 56.868,198.830 57.464 M202.000 77.000 C 202.871 77.550,203.672 78.000,203.779 78.000 C 203.886 78.000,206.364 79.327,209.287 80.948 C 212.209 82.570,215.500 84.395,216.600 85.004 C 217.700 85.613,219.410 86.561,220.400 87.111 C 221.390 87.661,224.720 89.501,227.800 91.200 C 236.664 96.090,237.377 96.490,237.800 96.803 C 238.020 96.966,239.370 97.727,240.800 98.496 C 242.230 99.264,244.210 100.342,245.200 100.891 C 246.190 101.440,248.080 102.483,249.400 103.208 C 250.720 103.933,252.471 104.948,253.292 105.463 C 254.113 105.978,254.872 106.400,254.980 106.400 C 255.087 106.400,256.666 107.273,258.488 108.340 C 261.763 110.258,270.541 115.180,274.800 117.487 C 276.010 118.142,279.400 120.056,282.334 121.739 C 285.267 123.423,287.734 124.800,287.816 124.800 C 287.898 124.800,288.837 125.314,289.903 125.943 C 292.298 127.355,295.015 128.882,298.360 130.695 C 299.768 131.459,301.478 132.427,302.160 132.847 C 302.842 133.267,303.717 133.720,304.104 133.853 C 305.241 134.244,305.224 133.094,305.109 200.160 L 305.000 264.520 302.800 265.714 C 296.790 268.975,295.512 269.681,291.849 271.759 C 289.676 272.991,287.845 274.000,287.782 274.000 C 287.718 274.000,286.296 274.810,284.622 275.800 C 282.947 276.790,281.489 277.600,281.381 277.600 C 281.272 277.600,280.513 278.022,279.692 278.537 C 278.871 279.052,277.120 280.067,275.800 280.792 C 272.620 282.539,270.492 283.718,266.400 286.000 C 264.530 287.043,262.100 288.394,261.000 289.002 C 259.900 289.610,257.110 291.190,254.800 292.513 C 252.490 293.835,249.430 295.543,248.000 296.307 C 242.587 299.200,240.153 300.550,238.708 301.460 C 237.887 301.977,237.126 302.400,237.015 302.400 C 236.905 302.400,234.456 303.750,231.574 305.400 C 228.691 307.050,226.254 308.400,226.158 308.400 C 226.063 308.400,225.266 308.854,224.388 309.408 C 223.510 309.962,221.578 311.070,220.096 311.871 C 218.613 312.671,216.770 313.682,216.000 314.118 C 215.230 314.553,213.430 315.542,212.000 316.315 C 210.570 317.089,208.729 318.144,207.908 318.661 C 207.087 319.177,206.328 319.600,206.219 319.600 C 206.111 319.600,204.653 320.410,202.978 321.400 C 199.366 323.535,199.730 323.493,197.771 322.011 C 196.907 321.357,196.061 320.817,195.892 320.811 C 195.723 320.805,194.913 320.377,194.092 319.861 C 193.271 319.344,191.430 318.288,190.000 317.514 C 185.750 315.215,183.425 313.912,183.000 313.592 C 182.553 313.256,176.387 309.815,172.400 307.676 C 170.970 306.909,168.755 305.678,167.479 304.941 C 166.202 304.203,165.080 303.600,164.986 303.600 C 164.891 303.600,163.686 302.910,162.307 302.067 C 159.289 300.222,158.036 299.515,148.000 294.001 C 143.710 291.644,138.490 288.728,136.400 287.523 C 134.310 286.317,131.070 284.517,129.200 283.523 C 127.330 282.529,125.080 281.305,124.200 280.803 C 123.320 280.302,121.444 279.265,120.032 278.499 C 118.619 277.734,116.360 276.432,115.011 275.607 C 111.633 273.539,106.433 270.602,102.606 268.601 C 97.176 265.761,95.419 264.734,94.925 264.113 C 94.562 263.656,94.468 248.322,94.525 199.097 L 94.600 134.678 96.600 133.541 C 97.700 132.915,99.050 132.181,99.600 131.910 C 100.150 131.638,100.690 131.323,100.800 131.208 C 100.910 131.094,102.102 130.434,103.448 129.742 C 106.175 128.341,108.490 127.065,112.500 124.755 C 122.229 119.151,121.946 119.310,127.000 116.599 C 130.752 114.587,140.705 108.920,141.400 108.400 C 141.620 108.236,143.015 107.448,144.500 106.651 C 145.985 105.853,148.415 104.547,149.900 103.748 C 151.385 102.950,153.645 101.690,154.921 100.948 C 156.198 100.207,157.320 99.600,157.414 99.600 C 157.509 99.600,158.762 98.880,160.200 98.000 C 161.638 97.120,162.904 96.400,163.015 96.400 C 163.125 96.400,163.906 95.965,164.749 95.432 C 166.397 94.392,171.214 91.707,177.000 88.605 C 178.980 87.543,181.271 86.252,182.092 85.737 C 182.913 85.222,183.675 84.800,183.785 84.800 C 183.896 84.800,185.125 84.103,186.517 83.251 C 187.909 82.399,190.837 80.768,193.024 79.628 C 195.211 78.487,197.540 77.217,198.200 76.806 C 199.798 75.811,200.144 75.828,202.000 77.000 M184.989 91.337 C 184.555 91.632,182.940 92.559,181.400 93.397 C 179.860 94.235,177.929 95.343,177.108 95.860 C 176.287 96.377,175.525 96.800,175.415 96.800 C 175.304 96.800,174.086 97.485,172.707 98.322 C 171.328 99.159,168.850 100.536,167.200 101.382 C 165.550 102.228,163.529 103.344,162.708 103.860 C 161.887 104.377,161.119 104.800,161.001 104.800 C 160.883 104.800,159.452 105.610,157.821 106.600 C 156.190 107.590,154.779 108.400,154.685 108.400 C 154.592 108.400,152.914 109.322,150.957 110.449 C 149.001 111.576,145.870 113.305,144.000 114.291 C 142.130 115.278,139.430 116.759,138.000 117.583 C 136.570 118.407,134.140 119.807,132.600 120.695 C 128.694 122.946,126.996 123.896,124.000 125.505 C 122.570 126.273,121.220 127.035,121.000 127.198 C 120.498 127.569,117.088 129.435,113.300 131.410 C 111.705 132.242,110.400 133.068,110.400 133.247 C 110.400 133.516,113.774 139.362,114.293 139.992 C 114.380 140.098,115.025 139.851,115.726 139.443 C 116.427 139.035,118.170 138.071,119.600 137.300 C 121.030 136.529,122.380 135.765,122.600 135.602 C 123.004 135.303,126.226 133.504,128.800 132.141 C 129.570 131.734,130.290 131.310,130.400 131.200 C 130.510 131.090,131.230 130.662,132.000 130.249 C 132.770 129.836,135.830 128.149,138.800 126.500 C 141.770 124.850,145.190 122.953,146.400 122.284 C 147.610 121.615,149.728 120.377,151.107 119.533 C 152.486 118.690,153.698 118.000,153.800 118.000 C 153.902 118.000,155.162 117.280,156.600 116.400 C 158.038 115.520,159.299 114.800,159.403 114.800 C 159.643 114.800,165.786 111.413,175.000 106.202 C 178.960 103.963,183.820 101.275,185.800 100.230 C 190.843 97.569,190.686 97.947,188.348 94.100 C 186.189 90.548,186.171 90.533,184.989 91.337 M193.908 133.878 L 193.800 142.156 191.200 142.639 C 170.428 146.498,160.578 156.533,160.613 173.800 C 160.648 191.037,169.219 199.604,193.000 206.174 C 194.100 206.478,196.530 207.209,198.400 207.799 C 200.270 208.389,202.610 209.098,203.600 209.375 C 204.590 209.652,205.849 210.022,206.397 210.197 C 207.263 210.474,207.327 210.435,206.884 209.902 C 206.501 209.439,206.467 208.711,206.749 206.944 C 206.954 205.655,207.073 201.900,207.014 198.600 C 206.869 190.622,206.917 190.396,208.750 190.417 C 210.136 190.433,214.322 191.748,218.600 193.512 C 219.700 193.965,221.390 194.568,222.356 194.851 C 224.148 195.375,226.698 196.892,228.283 198.374 C 228.769 198.828,229.354 199.200,229.582 199.200 C 230.153 199.200,234.000 201.995,234.000 202.409 C 234.000 202.593,234.255 202.998,234.566 203.309 C 237.004 205.746,238.973 210.362,240.322 216.800 C 241.091 220.468,241.120 220.527,241.159 218.493 C 241.291 211.689,237.081 203.674,230.617 198.422 C 229.236 197.300,224.475 194.800,223.719 194.800 C 223.434 194.800,223.200 194.620,223.200 194.400 C 223.200 194.180,222.913 194.000,222.562 194.000 C 222.211 194.000,221.446 193.732,220.862 193.405 C 219.524 192.655,212.629 190.400,211.674 190.400 C 211.281 190.400,210.789 190.245,210.580 190.055 C 210.371 189.866,209.480 189.525,208.600 189.299 C 188.134 184.038,181.999 180.046,182.013 172.000 C 182.035 158.851,201.394 155.105,226.251 163.440 C 232.451 165.519,232.255 165.498,232.509 164.100 C 232.619 163.495,233.295 160.210,234.011 156.800 C 235.883 147.880,235.860 148.287,234.528 147.717 C 232.426 146.818,225.816 144.888,222.600 144.235 C 220.840 143.878,218.595 143.398,217.612 143.170 C 216.628 142.942,214.063 142.649,211.912 142.517 L 208.000 142.279 208.000 133.940 L 208.000 125.600 201.008 125.600 L 194.016 125.600 193.908 133.878 M290.800 199.573 L 290.800 247.545 294.639 247.673 C 296.751 247.743,298.538 247.704,298.610 247.586 C 298.682 247.469,298.755 225.824,298.773 199.486 L 298.805 151.600 294.802 151.600 L 290.800 151.600 290.800 199.573 M210.700 211.699 C 211.415 211.928,212.000 212.270,212.000 212.458 C 212.000 212.646,212.238 212.800,212.530 212.800 C 212.821 212.800,213.945 213.430,215.028 214.200 C 217.412 215.895,218.261 216.029,216.569 214.443 C 215.152 213.114,211.283 211.181,210.161 211.241 C 209.692 211.266,209.899 211.442,210.700 211.699 M220.186 220.350 C 220.304 221.093,220.401 222.982,220.402 224.550 C 220.405 227.323,220.421 227.369,221.002 226.254 C 221.800 224.726,221.723 222.982,220.764 220.800 C 220.026 219.122,219.986 219.091,220.186 220.350 M239.899 230.130 C 239.513 231.740,238.772 233.944,238.252 235.028 C 236.828 237.999,236.512 239.145,237.347 238.310 C 237.706 237.951,238.006 237.509,238.014 237.329 C 238.021 237.148,238.375 236.280,238.800 235.400 C 239.225 234.520,239.579 233.521,239.586 233.180 C 239.594 232.839,239.765 232.389,239.966 232.180 C 240.319 231.813,241.043 227.198,240.746 227.202 C 240.666 227.204,240.284 228.521,239.899 230.130 M163.457 230.463 C 163.350 231.198,163.058 232.970,162.806 234.400 C 162.555 235.830,162.100 238.530,161.796 240.400 C 161.491 242.270,161.074 244.581,160.868 245.535 L 160.495 247.270 163.012 248.435 C 164.397 249.076,165.805 249.600,166.141 249.600 C 166.478 249.600,166.854 249.764,166.978 249.965 C 167.103 250.166,167.922 250.452,168.800 250.600 C 169.678 250.748,170.488 251.018,170.600 251.200 C 170.712 251.382,171.568 251.656,172.502 251.810 C 173.436 251.964,174.380 252.225,174.600 252.390 C 174.820 252.555,175.892 252.806,176.981 252.948 C 178.071 253.091,179.511 253.375,180.181 253.581 C 181.758 254.066,190.184 255.214,192.000 255.192 C 194.371 255.164,192.397 254.402,189.310 254.154 C 187.820 254.034,185.340 253.685,183.800 253.378 C 182.260 253.071,180.370 252.755,179.600 252.675 C 178.830 252.596,177.930 252.431,177.600 252.308 C 177.270 252.185,175.290 251.682,173.200 251.191 C 171.110 250.699,168.950 250.065,168.400 249.782 C 167.850 249.500,166.345 248.864,165.055 248.370 C 162.160 247.260,161.114 246.252,161.617 245.056 C 162.020 244.096,163.894 234.165,164.080 232.003 C 164.227 230.297,165.218 229.967,166.765 231.111 C 168.983 232.750,182.565 236.838,181.827 235.644 C 181.676 235.400,181.224 235.200,180.822 235.200 C 179.267 235.200,166.559 230.688,165.996 229.936 C 165.186 228.853,163.643 229.173,163.457 230.463 M215.841 234.027 C 214.983 234.672,214.038 235.200,213.741 235.200 C 213.443 235.200,213.200 235.357,213.200 235.549 C 213.200 235.741,212.444 236.019,211.520 236.166 C 210.596 236.314,209.632 236.607,209.379 236.818 C 209.125 237.028,206.729 237.318,204.054 237.462 C 201.379 237.606,199.255 237.788,199.334 237.867 C 199.773 238.306,205.263 238.357,207.171 237.940 C 208.397 237.672,209.545 237.489,209.722 237.534 C 210.237 237.663,216.521 234.413,217.389 233.568 C 218.578 232.410,217.609 232.698,215.841 234.027 M184.575 236.606 C 185.660 236.908,186.716 237.052,186.919 236.926 C 187.123 236.800,187.407 236.888,187.551 237.120 C 187.841 237.590,191.083 238.016,195.500 238.165 C 200.340 238.328,198.740 237.739,193.547 237.446 C 190.878 237.295,188.403 237.023,188.047 236.841 C 187.691 236.658,186.320 236.408,185.000 236.283 L 182.600 236.056 184.575 236.606 M228.278 247.413 C 227.660 247.956,227.300 248.394,227.478 248.386 C 227.956 248.364,230.268 246.402,229.800 246.415 C 229.580 246.420,228.895 246.870,228.278 247.413 M224.600 249.361 C 223.720 249.844,222.010 250.638,220.800 251.126 C 218.688 251.978,218.664 252.004,220.200 251.773 C 221.080 251.641,221.860 251.368,221.933 251.167 C 222.007 250.965,222.242 250.800,222.455 250.800 C 223.088 250.800,226.330 249.236,226.599 248.801 C 226.962 248.215,226.404 248.371,224.600 249.361 M212.100 253.876 C 212.485 253.976,213.115 253.976,213.500 253.876 C 213.885 253.775,213.570 253.693,212.800 253.693 C 212.030 253.693,211.715 253.775,212.100 253.876 M208.900 254.276 C 209.285 254.376,209.915 254.376,210.300 254.276 C 210.685 254.175,210.370 254.093,209.600 254.093 C 208.830 254.093,208.515 254.175,208.900 254.276 M194.001 263.633 L 194.002 271.800 200.801 271.800 C 207.953 271.800,208.300 271.702,207.200 270.000 C 206.886 269.515,206.811 269.572,206.806 270.300 C 206.800 271.208,194.853 271.804,194.774 270.900 C 194.759 270.735,194.699 267.315,194.640 263.299 C 194.580 259.284,194.412 255.879,194.266 255.732 C 194.120 255.586,194.000 259.142,194.001 263.633 M206.686 256.647 C 206.506 257.682,206.519 261.008,206.728 267.100 C 206.896 271.996,207.547 268.746,207.569 262.900 C 207.592 256.951,207.163 253.911,206.686 256.647 M114.000 259.593 C 114.000 259.809,113.280 261.162,112.400 262.600 C 110.322 265.996,110.312 265.959,113.700 267.707 C 115.295 268.529,117.770 269.854,119.200 270.649 C 120.630 271.445,122.970 272.732,124.400 273.509 C 125.830 274.286,127.671 275.344,128.492 275.861 C 129.313 276.377,130.072 276.800,130.181 276.800 C 130.289 276.800,131.747 277.610,133.422 278.600 C 135.096 279.590,136.545 280.400,136.641 280.400 C 136.737 280.400,137.487 280.820,138.308 281.332 C 139.129 281.845,141.510 283.169,143.600 284.273 C 148.160 286.683,151.255 288.397,151.800 288.812 C 152.020 288.980,155.980 291.208,160.600 293.764 C 165.220 296.319,169.270 298.594,169.600 298.820 C 169.930 299.045,170.695 299.442,171.300 299.702 C 171.905 299.962,172.400 300.316,172.400 300.488 C 172.400 300.659,172.582 300.800,172.803 300.800 C 173.025 300.800,174.960 301.813,177.103 303.052 C 184.963 307.593,186.720 308.452,187.051 307.917 C 187.223 307.640,187.804 306.600,188.343 305.607 C 190.824 301.033,190.823 301.352,188.375 300.070 C 184.970 298.286,180.411 295.774,178.348 294.543 C 177.109 293.804,175.987 293.200,175.855 293.200 C 175.722 293.200,174.438 292.480,173.000 291.600 C 171.562 290.720,170.314 290.000,170.226 290.000 C 170.138 290.000,168.746 289.222,167.133 288.270 C 165.520 287.319,162.670 285.725,160.800 284.727 C 158.930 283.730,156.590 282.463,155.600 281.912 C 154.610 281.361,152.720 280.317,151.400 279.592 C 150.080 278.867,148.370 277.881,147.600 277.400 C 146.830 276.919,145.210 275.978,144.000 275.309 C 142.790 274.639,139.280 272.693,136.200 270.984 C 133.120 269.275,129.610 267.338,128.400 266.681 C 127.190 266.023,126.020 265.349,125.800 265.183 C 122.787 262.914,114.000 258.751,114.000 259.593 " stroke="none" fill="#9ea6aa" fill-rule="evenodd"></path><path id="path1" d="M0.000 200.000 L 0.000 400.000 200.000 400.000 L 400.000 400.000 400.000 200.000 L 400.000 0.000 200.000 0.000 L 0.000 0.000 0.000 200.000 M201.020 56.759 C 201.229 56.956,203.020 58.013,205.000 59.107 C 206.980 60.201,209.410 61.549,210.400 62.103 C 212.462 63.255,222.065 68.600,226.155 70.870 C 227.671 71.712,228.979 72.400,229.063 72.400 C 229.147 72.400,229.887 72.822,230.708 73.337 C 231.529 73.852,233.190 74.822,234.400 75.491 C 235.610 76.161,239.120 78.109,242.200 79.822 C 245.280 81.534,250.050 84.183,252.800 85.709 C 255.550 87.234,257.980 88.622,258.200 88.794 C 258.420 88.965,259.590 89.636,260.800 90.283 C 266.721 93.454,269.588 95.024,271.600 96.196 C 272.810 96.901,277.670 99.616,282.400 102.228 C 287.130 104.841,291.090 107.074,291.200 107.189 C 291.310 107.305,292.030 107.734,292.800 108.141 C 293.570 108.549,295.131 109.401,296.269 110.036 C 297.406 110.670,299.116 111.610,300.069 112.124 C 303.512 113.985,309.409 117.298,309.800 117.593 C 310.196 117.891,312.435 119.139,316.902 121.550 C 318.167 122.233,319.922 123.246,320.802 123.801 L 322.400 124.810 322.394 199.305 C 322.391 240.277,322.256 273.995,322.094 274.233 C 321.932 274.472,320.540 275.354,319.000 276.194 C 317.460 277.033,315.529 278.143,314.708 278.660 C 313.887 279.177,313.130 279.600,313.026 279.600 C 312.921 279.600,311.963 280.114,310.897 280.743 C 308.756 282.005,306.051 283.532,303.000 285.201 C 296.656 288.670,288.433 293.227,284.600 295.398 C 279.233 298.438,276.979 299.689,273.600 301.504 C 272.170 302.273,270.820 303.035,270.600 303.198 C 270.380 303.361,269.120 304.083,267.800 304.802 C 264.899 306.384,262.928 307.474,258.200 310.114 C 256.220 311.219,253.610 312.668,252.400 313.334 C 251.190 313.999,248.689 315.412,246.843 316.472 C 244.996 317.532,243.400 318.400,243.295 318.400 C 243.190 318.400,242.091 319.012,240.852 319.760 C 239.614 320.508,237.745 321.588,236.700 322.160 C 232.933 324.222,225.320 328.458,222.600 330.005 C 221.720 330.505,217.220 332.979,212.600 335.503 C 207.980 338.026,203.342 340.611,202.294 341.246 C 199.859 342.721,199.720 342.710,196.600 340.800 C 195.162 339.920,193.896 339.200,193.785 339.200 C 193.675 339.200,192.854 338.739,191.962 338.176 C 191.070 337.613,187.789 335.748,184.670 334.032 C 181.552 332.316,178.280 330.503,177.400 330.003 C 174.496 328.354,169.024 325.308,167.600 324.547 C 166.830 324.136,166.140 323.665,166.067 323.500 C 165.993 323.335,165.756 323.200,165.538 323.200 C 165.321 323.200,163.041 322.007,160.472 320.548 C 153.917 316.828,152.865 316.236,150.600 314.989 C 144.826 311.812,139.201 308.673,134.200 305.839 C 132.000 304.592,129.930 303.426,129.600 303.247 C 129.270 303.069,127.830 302.289,126.400 301.516 C 124.970 300.742,123.170 299.752,122.400 299.315 C 121.630 298.878,118.930 297.346,116.400 295.909 C 113.870 294.472,110.810 292.759,109.600 292.102 C 108.390 291.446,106.744 290.537,105.941 290.084 C 105.139 289.631,102.709 288.315,100.541 287.159 C 98.374 286.004,95.929 284.641,95.108 284.129 C 94.287 283.618,93.510 283.200,93.379 283.200 C 93.249 283.200,91.131 282.055,88.672 280.655 C 86.212 279.255,82.940 277.436,81.400 276.612 C 79.860 275.788,78.376 274.903,78.103 274.646 C 77.679 274.246,77.445 205.754,77.597 126.135 L 77.600 124.469 81.500 122.374 C 83.645 121.222,87.691 118.957,90.490 117.340 C 93.290 115.723,95.679 114.400,95.798 114.400 C 95.918 114.400,96.687 113.982,97.508 113.471 C 98.329 112.960,100.620 111.681,102.600 110.629 C 104.580 109.577,106.380 108.574,106.600 108.400 C 106.820 108.227,108.260 107.407,109.800 106.579 C 112.994 104.862,113.279 104.702,119.800 100.985 C 122.440 99.480,125.320 97.861,126.200 97.387 C 130.704 94.964,133.441 93.454,133.800 93.195 C 134.020 93.037,135.010 92.463,136.000 91.919 C 141.724 88.778,142.637 88.267,143.000 88.003 C 143.220 87.843,144.840 86.944,146.600 86.004 C 150.400 83.976,156.245 80.712,158.906 79.132 C 159.954 78.509,160.903 78.000,161.014 78.000 C 161.125 78.000,161.887 77.577,162.708 77.061 C 163.529 76.544,165.370 75.488,166.800 74.714 C 168.230 73.941,170.210 72.858,171.200 72.309 C 172.190 71.760,174.080 70.722,175.400 70.002 C 176.720 69.283,177.980 68.559,178.200 68.393 C 178.420 68.227,180.220 67.194,182.200 66.098 C 187.222 63.316,189.066 62.296,191.600 60.893 C 192.810 60.224,195.057 58.939,196.594 58.038 C 199.429 56.376,200.337 56.113,201.020 56.759 M198.400 77.363 C 197.630 77.867,195.560 79.048,193.800 79.986 C 192.040 80.925,190.060 82.010,189.400 82.397 C 188.740 82.784,187.390 83.546,186.400 84.090 C 185.410 84.633,182.710 86.161,180.400 87.484 C 178.090 88.807,174.580 90.751,172.600 91.804 C 170.620 92.856,168.329 94.141,167.508 94.659 C 166.687 95.176,165.900 95.600,165.759 95.600 C 165.617 95.600,164.167 96.410,162.536 97.400 C 160.906 98.390,159.484 99.200,159.378 99.200 C 159.271 99.200,158.442 99.668,157.535 100.241 C 155.862 101.297,145.193 107.200,144.957 107.200 C 144.886 107.200,143.247 108.156,141.314 109.325 C 139.381 110.494,134.560 113.219,130.600 115.381 C 126.640 117.542,120.880 120.758,117.800 122.526 C 111.841 125.949,102.362 131.200,102.145 131.200 C 102.073 131.200,100.796 131.925,99.307 132.811 C 97.818 133.698,96.330 134.572,96.000 134.755 C 95.415 135.079,94.813 261.016,95.385 263.400 C 95.491 263.840,95.987 264.392,96.489 264.628 C 97.454 265.080,103.116 268.099,106.800 270.124 C 108.669 271.152,113.816 274.174,116.600 275.879 C 117.040 276.148,117.670 276.495,118.000 276.650 C 118.330 276.805,119.950 277.690,121.600 278.617 C 125.392 280.747,128.493 282.432,132.800 284.705 C 134.670 285.692,136.650 286.810,137.200 287.188 C 137.750 287.567,139.370 288.513,140.800 289.291 C 142.230 290.068,144.210 291.154,145.200 291.704 C 150.819 294.827,153.714 296.400,153.842 296.400 C 153.921 296.400,155.114 297.090,156.493 297.933 C 157.872 298.776,159.900 299.969,161.000 300.585 C 165.766 303.252,170.358 305.800,172.400 306.911 C 179.952 311.020,182.207 312.282,184.000 313.401 C 184.770 313.881,186.480 314.867,187.800 315.593 C 189.120 316.318,191.190 317.456,192.400 318.122 C 193.610 318.788,195.728 320.023,197.107 320.867 C 200.126 322.713,199.461 322.721,202.600 320.800 C 204.038 319.920,205.307 319.200,205.421 319.200 C 205.535 319.200,207.107 318.356,208.914 317.325 C 210.721 316.294,212.920 315.062,213.800 314.588 C 218.261 312.185,221.145 310.574,222.492 309.732 C 223.313 309.220,224.075 308.800,224.186 308.800 C 224.297 308.800,225.246 308.289,226.294 307.664 C 229.723 305.620,238.357 300.800,238.589 300.800 C 238.714 300.800,239.491 300.374,240.315 299.853 C 241.140 299.333,242.801 298.374,244.007 297.723 C 246.061 296.614,250.360 294.217,262.400 287.470 C 265.150 285.929,268.120 284.275,269.000 283.794 C 270.576 282.933,276.273 279.763,279.400 278.007 C 281.152 277.024,281.988 276.552,288.800 272.706 C 291.330 271.278,294.480 269.510,295.800 268.779 C 297.120 268.047,299.280 266.845,300.600 266.107 C 301.920 265.369,303.316 264.662,303.701 264.536 C 304.366 264.318,304.397 260.960,304.301 199.513 L 304.200 134.720 302.600 133.763 C 301.720 133.236,300.730 132.683,300.400 132.533 C 299.810 132.266,294.543 129.379,291.400 127.600 C 290.520 127.102,288.270 125.839,286.400 124.793 C 284.530 123.747,281.830 122.220,280.400 121.400 C 277.326 119.637,271.415 116.330,268.600 114.797 C 267.500 114.198,265.880 113.300,265.000 112.801 C 264.120 112.303,261.798 111.004,259.841 109.915 C 257.883 108.826,255.592 107.500,254.749 106.968 C 253.906 106.435,253.145 106.000,253.059 106.000 C 252.973 106.000,251.124 104.991,248.951 103.759 C 246.778 102.526,243.920 100.930,242.600 100.212 C 238.325 97.888,236.208 96.699,235.800 96.394 C 235.580 96.229,234.410 95.562,233.200 94.912 C 231.990 94.261,226.500 91.243,221.000 88.206 C 215.500 85.168,210.010 82.137,208.800 81.469 C 207.590 80.802,205.089 79.388,203.243 78.328 C 201.396 77.268,199.866 76.411,199.843 76.424 C 199.819 76.436,199.170 76.859,198.400 77.363 M187.200 90.850 C 187.200 91.050,188.101 92.667,189.202 94.442 C 191.401 97.988,191.403 98.082,189.275 99.136 C 187.830 99.851,183.579 102.148,180.800 103.716 C 180.030 104.150,177.780 105.402,175.800 106.499 C 173.820 107.595,172.020 108.632,171.800 108.803 C 171.580 108.975,166.990 111.544,161.600 114.513 C 156.210 117.481,150.180 120.854,148.200 122.008 C 146.220 123.162,143.700 124.597,142.600 125.196 C 140.300 126.450,134.153 129.868,131.800 131.202 C 130.920 131.701,129.030 132.742,127.600 133.515 C 126.170 134.289,124.329 135.344,123.508 135.861 C 122.687 136.377,121.937 136.800,121.841 136.800 C 121.745 136.800,120.334 137.587,118.707 138.550 C 114.700 140.918,114.176 141.056,113.486 139.920 C 108.757 132.128,108.649 133.085,114.600 129.993 C 116.800 128.850,118.780 127.778,119.000 127.611 C 119.418 127.294,121.623 126.056,125.968 123.700 C 127.381 122.934,129.679 121.608,131.075 120.754 C 132.472 119.899,133.704 119.200,133.815 119.200 C 133.925 119.200,134.687 118.780,135.508 118.268 C 136.883 117.409,138.395 116.564,144.400 113.302 C 145.610 112.645,147.455 111.633,148.500 111.053 C 149.545 110.474,151.165 109.578,152.100 109.062 C 153.035 108.546,155.510 107.136,157.600 105.928 C 159.690 104.721,163.020 102.867,165.000 101.807 C 166.980 100.748,169.645 99.278,170.921 98.540 C 172.198 97.803,173.320 97.200,173.414 97.200 C 173.509 97.200,174.762 96.480,176.200 95.600 C 177.638 94.720,178.898 94.000,179.000 94.000 C 179.102 94.000,180.391 93.262,181.864 92.361 C 185.587 90.082,187.200 89.625,187.200 90.850 M208.424 130.300 C 208.437 133.325,208.482 137.060,208.524 138.599 L 208.600 141.399 212.600 141.850 C 221.605 142.866,235.242 146.449,236.238 148.061 C 236.371 148.277,236.199 149.747,235.854 151.327 C 235.509 152.907,234.940 155.640,234.589 157.400 C 232.939 165.691,232.504 166.904,231.482 166.079 C 230.637 165.397,221.134 162.383,217.400 161.614 C 210.754 160.244,208.536 160.000,202.754 160.000 C 188.868 160.000,182.800 163.644,182.800 171.984 C 182.800 178.799,187.067 182.360,199.600 186.003 C 201.250 186.483,203.140 187.033,203.800 187.225 C 204.460 187.417,206.080 187.869,207.400 188.229 C 222.102 192.239,231.398 196.741,235.281 201.731 C 235.995 202.649,236.698 203.490,236.844 203.600 C 241.273 206.948,243.557 224.615,240.664 233.153 C 237.932 241.215,231.113 248.417,223.200 251.598 C 221.990 252.085,220.640 252.628,220.200 252.805 C 217.999 253.694,214.431 254.589,209.508 255.489 L 208.416 255.689 208.308 264.144 L 208.200 272.600 201.156 272.709 C 192.459 272.844,193.245 273.698,193.109 263.970 L 193.000 256.200 190.600 255.889 C 180.395 254.566,176.034 253.794,173.200 252.808 C 172.650 252.616,170.850 252.063,169.200 251.577 C 167.550 251.092,166.020 250.566,165.800 250.407 C 165.580 250.248,164.448 249.784,163.285 249.375 C 160.816 248.507,159.445 247.381,159.783 246.501 C 159.913 246.161,160.189 244.784,160.396 243.441 C 160.602 242.099,161.056 239.560,161.403 237.800 C 161.751 236.040,162.253 233.219,162.519 231.532 C 163.131 227.648,163.076 227.685,166.078 229.101 C 170.677 231.271,174.755 232.849,177.800 233.637 C 178.460 233.808,180.369 234.307,182.043 234.747 C 191.471 237.223,207.105 237.343,212.260 234.978 C 212.954 234.660,213.679 234.400,213.871 234.400 C 214.574 234.400,217.992 230.957,218.832 229.403 C 220.035 227.178,220.040 221.761,218.841 219.340 C 216.539 214.687,212.105 212.582,191.600 206.402 C 189.290 205.706,187.040 204.996,186.600 204.824 C 186.160 204.653,184.270 203.922,182.400 203.201 C 164.896 196.451,158.098 186.319,159.945 169.730 C 161.312 157.462,170.021 147.544,182.400 144.162 C 183.610 143.832,185.500 143.298,186.600 142.976 C 187.700 142.653,189.230 142.290,190.000 142.169 C 193.570 141.606,193.200 142.613,193.200 133.459 C 193.200 128.990,193.320 125.213,193.467 125.067 C 193.613 124.920,197.033 124.800,201.067 124.800 L 208.400 124.800 208.424 130.300 M299.200 199.600 L 299.200 248.400 294.862 248.400 L 290.525 248.400 290.262 242.336 C 289.918 234.369,289.921 151.412,290.267 151.067 C 290.413 150.920,292.483 150.800,294.867 150.800 L 299.200 150.800 299.200 199.600 M117.517 259.857 C 120.728 261.600,122.424 262.540,126.400 264.781 C 128.050 265.711,130.570 267.112,132.000 267.894 C 133.430 268.676,134.780 269.446,135.000 269.605 C 135.220 269.764,136.390 270.433,137.600 271.091 C 142.847 273.947,144.690 274.983,146.092 275.863 C 146.913 276.378,147.655 276.800,147.741 276.800 C 147.827 276.800,149.676 277.809,151.849 279.041 C 154.022 280.274,156.880 281.870,158.200 282.588 C 159.520 283.305,161.455 284.367,162.500 284.946 C 163.545 285.526,165.255 286.468,166.300 287.040 C 167.345 287.612,169.214 288.692,170.452 289.440 C 171.691 290.188,172.820 290.800,172.960 290.800 C 173.101 290.800,173.887 291.221,174.708 291.736 C 176.710 292.993,179.421 294.504,187.200 298.699 C 191.611 301.078,191.564 300.959,189.536 304.662 C 186.652 309.925,187.245 309.528,184.548 308.001 C 183.256 307.270,181.210 306.131,180.000 305.471 C 178.790 304.810,177.173 303.849,176.407 303.335 C 175.641 302.821,174.879 302.400,174.714 302.400 C 174.549 302.400,173.286 301.712,171.907 300.871 C 170.528 300.029,166.790 297.924,163.600 296.193 C 160.410 294.461,156.672 292.359,155.293 291.522 C 153.914 290.685,152.696 290.000,152.585 290.000 C 152.475 290.000,151.713 289.577,150.892 289.061 C 150.071 288.544,148.140 287.440,146.600 286.607 C 145.060 285.774,142.630 284.459,141.200 283.686 C 136.159 280.961,131.465 278.325,129.949 277.368 C 129.106 276.835,128.330 276.400,128.226 276.400 C 128.121 276.400,127.163 275.886,126.097 275.257 C 122.659 273.230,117.598 270.436,112.652 267.835 C 109.718 266.291,109.641 266.072,111.160 263.602 C 111.842 262.495,112.400 261.511,112.400 261.417 C 112.400 260.939,114.131 258.400,114.457 258.400 C 114.664 258.400,116.042 259.055,117.517 259.857 " stroke="none" fill="#fbfbfb" fill-rule="evenodd"></path><path id="path2" d="M78.185 124.900 C 78.080 125.175,78.041 158.970,78.097 200.000 L 78.200 274.600 78.400 199.500 C 78.510 158.195,78.549 124.400,78.487 124.400 C 78.426 124.400,78.289 124.625,78.185 124.900 M193.861 125.500 C 193.758 125.665,195.863 125.753,198.537 125.696 C 207.366 125.506,208.300 125.355,201.124 125.277 C 197.232 125.235,193.963 125.335,193.861 125.500 M321.781 140.000 C 321.781 148.250,321.834 151.625,321.899 147.500 C 321.964 143.375,321.964 136.625,321.899 132.500 C 321.834 128.375,321.781 131.750,321.781 140.000 M193.742 134.200 C 193.741 136.180,193.808 137.040,193.892 136.112 C 193.976 135.184,193.977 133.564,193.895 132.512 C 193.812 131.460,193.743 132.220,193.742 134.200 M94.847 134.543 C 94.518 134.940,94.424 145.275,94.500 172.843 L 94.604 210.600 94.702 172.720 C 94.794 137.125,94.842 134.815,95.500 134.432 C 95.885 134.208,95.997 134.019,95.749 134.012 C 95.501 134.005,95.095 134.245,94.847 134.543 M304.978 147.400 C 304.979 154.440,305.033 157.264,305.099 153.675 C 305.166 150.086,305.166 144.326,305.099 140.875 C 305.033 137.424,304.978 140.360,304.978 147.400 M208.905 142.287 C 209.514 142.379,210.414 142.377,210.905 142.282 C 211.397 142.187,210.900 142.111,209.800 142.114 C 208.700 142.117,208.297 142.195,208.905 142.287 M290.584 151.700 C 290.480 151.975,290.441 171.730,290.499 195.600 L 290.604 239.000 290.702 195.314 L 290.800 151.628 294.900 151.498 L 299.000 151.369 294.887 151.284 C 291.901 151.223,290.723 151.337,290.584 151.700 M196.900 159.476 C 197.285 159.576,197.915 159.576,198.300 159.476 C 198.685 159.375,198.370 159.293,197.600 159.293 C 196.830 159.293,196.515 159.375,196.900 159.476 M206.900 159.476 C 207.285 159.576,207.915 159.576,208.300 159.476 C 208.685 159.375,208.370 159.293,207.600 159.293 C 206.830 159.293,206.515 159.375,206.900 159.476 M321.794 207.600 C 321.794 234.330,321.842 245.265,321.900 231.900 C 321.958 218.535,321.958 196.665,321.900 183.300 C 321.842 169.935,321.794 180.870,321.794 207.600 M185.178 163.900 L 183.800 165.400 185.300 164.022 C 186.125 163.263,186.800 162.588,186.800 162.522 C 186.800 162.216,186.462 162.504,185.178 163.900 M160.137 173.800 C 160.139 175.560,160.209 176.230,160.293 175.289 C 160.378 174.349,160.377 172.909,160.291 172.089 C 160.205 171.270,160.136 172.040,160.137 173.800 M304.986 192.200 C 304.986 203.640,305.037 208.262,305.100 202.472 C 305.162 196.682,305.162 187.322,305.100 181.672 C 305.037 176.022,304.986 180.760,304.986 192.200 M94.588 234.600 C 94.588 247.800,94.638 253.142,94.700 246.471 C 94.761 239.801,94.761 229.001,94.700 222.471 C 94.638 215.942,94.588 221.400,94.588 234.600 M298.524 215.000 C 298.526 216.320,298.601 216.812,298.690 216.093 C 298.779 215.374,298.777 214.294,298.686 213.693 C 298.595 213.092,298.522 213.680,298.524 215.000 M304.977 229.800 C 304.977 236.180,305.032 238.734,305.099 235.476 C 305.167 232.217,305.166 226.997,305.099 223.876 C 305.031 220.754,304.976 223.420,304.977 229.800 M292.500 247.894 C 293.545 247.976,295.255 247.976,296.300 247.894 C 297.345 247.812,296.490 247.744,294.400 247.744 C 292.310 247.744,291.455 247.812,292.500 247.894 M304.963 256.800 C 304.963 260.430,305.023 261.915,305.098 260.100 C 305.172 258.285,305.172 255.315,305.098 253.500 C 305.023 251.685,304.963 253.170,304.963 256.800 M198.576 322.578 C 199.466 323.290,200.243 323.378,200.597 322.805 C 200.735 322.582,200.583 322.508,200.252 322.635 C 199.928 322.760,199.243 322.658,198.731 322.409 C 197.843 321.977,197.836 321.985,198.576 322.578 " stroke="none" fill="#b8b7b7" fill-rule="evenodd"></path><path id="path3" d="M77.742 130.600 C 77.741 132.580,77.808 133.440,77.892 132.512 C 77.976 131.584,77.977 129.964,77.895 128.912 C 77.812 127.860,77.743 128.620,77.742 130.600 M298.986 177.000 C 298.987 188.880,299.038 193.682,299.100 187.672 C 299.162 181.661,299.162 171.941,299.100 166.072 C 299.037 160.202,298.986 165.120,298.986 177.000 M201.700 159.476 C 202.085 159.576,202.715 159.576,203.100 159.476 C 203.485 159.375,203.170 159.293,202.400 159.293 C 201.630 159.293,201.315 159.375,201.700 159.476 M298.958 207.400 C 298.958 210.480,299.021 211.687,299.097 210.082 C 299.173 208.478,299.173 205.958,299.096 204.482 C 299.019 203.007,298.957 204.320,298.958 207.400 M298.981 232.200 C 298.981 240.560,299.034 244.037,299.099 239.926 C 299.164 235.816,299.164 228.976,299.100 224.726 C 299.035 220.477,298.982 223.840,298.981 232.200 " stroke="none" fill="#c5d0d5" fill-rule="evenodd"></path><path id="path4" d="M77.693 126.000 C 77.693 126.770,77.775 127.085,77.876 126.700 C 77.976 126.315,77.976 125.685,77.876 125.300 C 77.775 124.915,77.693 125.230,77.693 126.000 M203.900 125.089 C 204.615 125.178,205.785 125.178,206.500 125.089 C 207.215 125.001,206.630 124.928,205.200 124.928 C 203.770 124.928,203.185 125.001,203.900 125.089 M208.134 135.600 C 208.134 137.250,208.205 137.925,208.291 137.100 C 208.378 136.275,208.378 134.925,208.291 134.100 C 208.205 133.275,208.134 133.950,208.134 135.600 M77.767 141.400 C 77.767 145.580,77.826 147.236,77.898 145.079 C 77.971 142.923,77.970 139.503,77.898 137.479 C 77.825 135.456,77.766 137.220,77.767 141.400 M77.795 211.800 C 77.795 246.120,77.842 260.101,77.900 242.869 C 77.958 225.636,77.958 197.556,77.900 180.469 C 77.842 163.381,77.795 177.480,77.795 211.800 M292.000 151.058 C 295.348 151.353,299.111 151.376,298.940 151.100 C 298.837 150.935,296.918 150.830,294.676 150.867 C 292.434 150.904,291.230 150.990,292.000 151.058 M94.924 197.000 C 94.926 198.320,95.001 198.812,95.090 198.093 C 95.179 197.374,95.177 196.294,95.086 195.693 C 94.995 195.092,94.922 195.680,94.924 197.000 M94.959 211.600 C 94.959 214.790,95.021 216.095,95.097 214.500 C 95.173 212.905,95.173 210.295,95.097 208.700 C 95.021 207.105,94.959 208.410,94.959 211.600 M298.924 215.000 C 298.926 216.320,299.001 216.812,299.090 216.093 C 299.179 215.374,299.177 214.294,299.086 213.693 C 298.995 213.092,298.922 213.680,298.924 215.000 M94.901 224.200 C 94.905 225.080,94.987 225.393,95.083 224.895 C 95.179 224.398,95.175 223.678,95.075 223.295 C 94.975 222.913,94.896 223.320,94.901 224.200 " stroke="none" fill="#d4d4d1" fill-rule="evenodd"></path><path id="path5" d="M190.000 98.332 C 189.094 99.215,189.083 99.264,189.878 98.851 C 190.360 98.601,190.873 98.205,191.018 97.971 C 191.510 97.175,191.002 97.355,190.000 98.332 M193.467 125.067 C 193.320 125.213,193.200 128.978,193.200 133.433 C 193.200 138.566,193.050 141.608,192.790 141.737 C 192.565 141.849,192.610 141.894,192.890 141.837 C 193.281 141.758,194.154 124.794,193.767 124.799 C 193.748 124.800,193.613 124.920,193.467 125.067 M322.196 199.400 C 322.196 240.540,322.243 257.311,322.300 236.668 C 322.357 216.026,322.357 182.366,322.300 161.868 C 322.243 141.371,322.196 158.260,322.196 199.400 M304.595 205.000 C 304.595 237.560,304.642 250.821,304.700 234.469 C 304.758 218.116,304.758 191.476,304.700 175.269 C 304.642 159.061,304.595 172.440,304.595 205.000 M290.193 195.800 C 290.193 220.440,290.241 230.461,290.300 218.069 C 290.359 205.677,290.359 185.517,290.300 173.269 C 290.241 161.021,290.193 171.160,290.193 195.800 M200.515 159.896 C 201.788 159.976,203.768 159.975,204.915 159.894 C 206.062 159.814,205.020 159.749,202.600 159.750 C 200.180 159.751,199.242 159.816,200.515 159.896 M182.520 172.000 C 182.520 173.210,182.595 173.705,182.687 173.100 C 182.778 172.495,182.778 171.505,182.687 170.900 C 182.595 170.295,182.520 170.790,182.520 172.000 M159.740 174.000 C 159.740 175.870,159.809 176.635,159.893 175.700 C 159.977 174.765,159.977 173.235,159.893 172.300 C 159.809 171.365,159.740 172.130,159.740 174.000 M205.600 187.941 C 205.930 188.134,206.740 188.409,207.400 188.552 C 208.168 188.718,208.384 188.684,208.000 188.459 C 207.670 188.266,206.860 187.991,206.200 187.848 C 205.432 187.682,205.216 187.716,205.600 187.941 M209.800 189.200 C 210.240 189.389,210.870 189.544,211.200 189.544 C 211.578 189.544,211.504 189.417,211.000 189.200 C 210.560 189.011,209.930 188.856,209.600 188.856 C 209.222 188.856,209.296 188.983,209.800 189.200 M214.400 190.600 C 216.226 191.303,216.945 191.293,215.400 190.586 C 214.740 190.283,213.930 190.042,213.600 190.048 C 213.270 190.055,213.630 190.303,214.400 190.600 M217.600 191.533 C 217.930 191.736,218.650 192.024,219.200 192.171 C 219.895 192.357,220.017 192.325,219.600 192.067 C 219.270 191.864,218.550 191.576,218.000 191.429 C 217.305 191.243,217.183 191.275,217.600 191.533 M231.200 198.129 C 231.200 198.237,232.145 199.106,233.300 200.059 C 234.455 201.013,235.147 201.473,234.838 201.081 C 234.193 200.263,231.200 197.835,231.200 198.129 M236.815 203.800 C 236.817 204.020,237.186 204.650,237.636 205.200 C 238.179 205.864,238.315 205.931,238.040 205.400 C 237.366 204.095,236.812 203.372,236.815 203.800 M95.301 210.600 C 95.305 211.480,95.387 211.793,95.483 211.295 C 95.579 210.798,95.575 210.078,95.475 209.695 C 95.375 209.313,95.296 209.720,95.301 210.600 M210.800 212.584 C 210.800 212.694,211.520 213.151,212.400 213.600 C 213.280 214.049,214.000 214.326,214.000 214.216 C 214.000 214.106,213.280 213.649,212.400 213.200 C 211.520 212.751,210.800 212.474,210.800 212.584 M240.850 212.600 C 240.850 212.820,241.105 214.170,241.418 215.600 C 241.978 218.161,241.983 218.169,241.779 216.096 C 241.600 214.282,240.852 211.467,240.850 212.600 M214.600 214.695 C 214.820 214.911,215.810 215.780,216.800 216.627 L 218.600 218.166 217.200 216.650 C 216.430 215.817,215.440 214.947,215.000 214.718 C 214.545 214.482,214.373 214.471,214.600 214.695 M241.317 228.998 C 241.056 230.525,240.907 231.840,240.986 231.919 C 241.224 232.157,242.068 227.651,241.925 226.908 C 241.853 226.530,241.579 227.471,241.317 228.998 M162.956 228.571 C 162.835 228.885,162.816 229.560,162.914 230.071 C 163.044 230.753,163.106 230.643,163.146 229.653 C 163.192 228.515,163.324 228.339,164.001 228.516 C 164.441 228.631,164.700 228.562,164.577 228.363 C 164.230 227.802,163.200 227.934,162.956 228.571 M167.600 230.134 C 167.600 230.237,168.181 230.524,168.891 230.772 C 169.601 231.019,170.006 231.057,169.791 230.856 C 169.335 230.429,167.600 229.858,167.600 230.134 M216.404 232.347 C 214.294 234.513,214.565 234.550,216.934 232.420 C 217.859 231.589,219.150 229.867,218.714 230.047 C 218.651 230.073,217.612 231.108,216.404 232.347 M161.856 234.884 C 161.721 235.388,161.627 236.160,161.646 236.600 C 161.665 237.040,161.845 236.698,162.046 235.840 C 162.436 234.178,162.270 233.340,161.856 234.884 M212.500 234.812 C 211.161 235.351,211.411 235.624,212.800 235.140 C 213.460 234.910,214.000 234.649,214.000 234.561 C 214.000 234.324,213.513 234.405,212.500 234.812 M182.400 235.200 C 183.768 235.638,184.819 235.638,183.800 235.200 C 183.360 235.011,182.640 234.862,182.200 234.868 C 181.557 234.877,181.596 234.943,182.400 235.200 M239.250 235.850 C 238.986 236.429,238.862 236.995,238.974 237.107 C 239.086 237.219,239.368 236.811,239.600 236.200 C 239.832 235.589,239.957 235.023,239.876 234.943 C 239.796 234.862,239.514 235.271,239.250 235.850 M187.233 236.150 C 187.325 236.232,188.480 236.400,189.800 236.523 C 191.378 236.670,191.789 236.635,191.000 236.420 C 189.766 236.085,186.936 235.882,187.233 236.150 M206.600 236.419 C 206.042 236.671,206.285 236.707,207.400 236.538 C 208.280 236.404,209.075 236.228,209.167 236.147 C 209.510 235.844,207.368 236.071,206.600 236.419 M196.700 237.096 C 198.075 237.174,200.325 237.174,201.700 237.096 C 203.075 237.018,201.950 236.954,199.200 236.954 C 196.450 236.954,195.325 237.018,196.700 237.096 M160.600 241.600 C 160.446 242.510,160.404 243.338,160.507 243.440 C 160.610 243.543,160.813 242.877,160.960 241.960 C 161.107 241.043,161.148 240.215,161.053 240.120 C 160.958 240.024,160.754 240.690,160.600 241.600 M232.800 244.757 C 230.930 246.648,230.125 247.628,231.010 246.935 C 232.649 245.653,236.400 241.812,236.400 241.417 C 236.400 241.107,236.520 240.995,232.800 244.757 M292.112 248.295 C 293.164 248.377,294.784 248.376,295.712 248.292 C 296.640 248.208,295.780 248.141,293.800 248.142 C 291.820 248.143,291.060 248.212,292.112 248.295 M165.600 250.231 C 165.600 250.501,167.678 251.256,167.876 251.057 C 167.967 250.967,167.492 250.701,166.820 250.467 C 166.149 250.233,165.600 250.127,165.600 250.231 M222.000 251.800 C 221.450 252.114,221.180 252.372,221.400 252.372 C 221.620 252.372,222.250 252.114,222.800 251.800 C 223.350 251.486,223.620 251.228,223.400 251.228 C 223.180 251.228,222.550 251.486,222.000 251.800 M177.800 253.981 C 178.568 254.329,180.710 254.556,180.367 254.253 C 180.275 254.172,179.480 253.996,178.600 253.862 C 177.485 253.693,177.242 253.729,177.800 253.981 M215.200 254.000 C 214.376 254.264,214.341 254.326,215.000 254.354 C 215.440 254.373,216.070 254.213,216.400 254.000 C 217.101 253.547,216.614 253.547,215.200 254.000 M185.000 255.223 C 185.880 255.405,187.140 255.542,187.800 255.527 C 188.700 255.507,188.550 255.420,187.200 255.180 C 184.786 254.750,182.894 254.787,185.000 255.223 M209.200 255.158 L 208.200 255.436 208.092 263.927 L 207.984 272.418 200.892 272.309 L 193.800 272.200 193.579 264.000 C 193.324 254.538,193.535 255.588,191.900 255.647 L 190.600 255.695 191.800 255.951 L 193.000 256.207 193.109 263.973 C 193.245 273.697,192.459 272.844,201.156 272.709 L 208.200 272.600 208.308 264.100 C 208.416 255.616,208.418 255.600,209.308 255.572 C 209.799 255.556,210.560 255.389,211.000 255.200 L 211.800 254.856 211.000 254.868 C 210.560 254.874,209.750 255.005,209.200 255.158 " stroke="none" fill="#dbe2e4" fill-rule="evenodd"></path><path id="path6" d="M193.728 128.400 C 193.728 129.830,193.801 130.415,193.889 129.700 C 193.978 128.985,193.978 127.815,193.889 127.100 C 193.801 126.385,193.728 126.970,193.728 128.400 M193.720 139.600 C 193.720 140.810,193.795 141.305,193.887 140.700 C 193.978 140.095,193.978 139.105,193.887 138.500 C 193.795 137.895,193.720 138.390,193.720 139.600 M298.920 153.600 C 298.920 154.810,298.995 155.305,299.087 154.700 C 299.178 154.095,299.178 153.105,299.087 152.500 C 298.995 151.895,298.920 152.390,298.920 153.600 M321.724 157.000 C 321.726 158.320,321.801 158.812,321.890 158.093 C 321.979 157.374,321.977 156.294,321.886 155.693 C 321.795 155.092,321.722 155.680,321.724 157.000 M199.300 159.476 C 199.685 159.576,200.315 159.576,200.700 159.476 C 201.085 159.375,200.770 159.293,200.000 159.293 C 199.230 159.293,198.915 159.375,199.300 159.476 M204.305 159.483 C 204.802 159.579,205.522 159.575,205.905 159.475 C 206.287 159.375,205.880 159.296,205.000 159.301 C 204.120 159.305,203.807 159.387,204.305 159.483 M304.920 162.000 C 304.920 163.210,304.995 163.705,305.087 163.100 C 305.178 162.495,305.178 161.505,305.087 160.900 C 304.995 160.295,304.920 160.790,304.920 162.000 M304.914 169.800 C 304.917 170.900,304.995 171.303,305.087 170.695 C 305.179 170.086,305.177 169.186,305.082 168.695 C 304.987 168.203,304.911 168.700,304.914 169.800 M182.120 172.000 C 182.120 173.210,182.195 173.705,182.287 173.100 C 182.378 172.495,182.378 171.505,182.287 170.900 C 182.195 170.295,182.120 170.790,182.120 172.000 M304.934 215.600 C 304.934 217.250,305.005 217.925,305.091 217.100 C 305.178 216.275,305.178 214.925,305.091 214.100 C 305.005 213.275,304.934 213.950,304.934 215.600 M290.551 243.200 C 290.551 245.730,290.616 246.765,290.696 245.500 C 290.775 244.235,290.775 242.165,290.696 240.900 C 290.616 239.635,290.551 240.670,290.551 243.200 M304.946 246.600 C 304.947 248.800,305.014 249.649,305.095 248.487 C 305.176 247.324,305.176 245.524,305.093 244.487 C 305.011 243.449,304.945 244.400,304.946 246.600 M321.755 269.000 C 321.756 271.860,321.820 272.978,321.897 271.483 C 321.974 269.989,321.974 267.649,321.896 266.283 C 321.818 264.918,321.755 266.140,321.755 269.000 " stroke="none" fill="#c4c4bc" fill-rule="evenodd"></path><path id="path7" d="M206.978 188.765 C 207.103 188.966,207.922 189.252,208.800 189.400 C 209.678 189.548,210.497 189.834,210.622 190.035 C 210.746 190.236,211.194 190.400,211.618 190.400 C 212.616 190.400,219.483 192.632,220.862 193.405 C 221.446 193.732,222.211 194.000,222.562 194.000 C 222.913 194.000,223.200 194.180,223.200 194.400 C 223.200 194.620,223.434 194.800,223.719 194.800 C 224.475 194.800,229.236 197.300,230.617 198.422 C 237.081 203.674,241.291 211.689,241.159 218.493 C 241.120 220.527,241.091 220.468,240.322 216.800 C 238.973 210.362,237.004 205.746,234.566 203.309 C 234.255 202.998,234.000 202.593,234.000 202.409 C 234.000 201.995,230.153 199.200,229.582 199.200 C 229.354 199.200,228.769 198.828,228.283 198.374 C 226.698 196.892,224.148 195.375,222.356 194.851 C 221.390 194.568,219.700 193.965,218.600 193.512 C 214.322 191.748,210.136 190.433,208.750 190.417 C 206.917 190.396,206.869 190.622,207.014 198.600 C 207.073 201.900,206.954 205.655,206.749 206.944 C 206.493 208.549,206.510 209.451,206.804 209.805 C 207.114 210.179,207.096 210.368,206.738 210.487 C 206.466 210.578,207.494 211.151,209.022 211.760 C 213.164 213.411,215.783 215.031,217.546 217.033 C 218.414 218.020,219.189 218.632,219.268 218.395 C 219.484 217.748,219.726 220.956,219.751 224.800 C 219.812 234.312,210.249 238.569,192.690 236.845 C 189.632 236.545,187.727 236.518,187.260 236.768 C 186.775 237.027,185.898 236.974,184.570 236.605 L 182.600 236.056 185.000 236.214 L 187.400 236.371 185.600 235.948 C 180.843 234.829,173.424 232.550,170.024 231.161 C 167.947 230.313,166.162 229.705,166.057 229.810 C 165.539 230.328,178.885 235.200,180.822 235.200 C 181.224 235.200,181.676 235.400,181.827 235.644 C 182.565 236.838,168.983 232.750,166.765 231.111 C 165.218 229.967,164.227 230.297,164.080 232.003 C 163.894 234.165,162.020 244.096,161.617 245.056 C 161.114 246.252,162.160 247.260,165.055 248.370 C 166.345 248.864,167.850 249.500,168.400 249.782 C 168.950 250.065,171.110 250.699,173.200 251.191 C 175.290 251.682,177.270 252.185,177.600 252.308 C 177.930 252.431,178.830 252.596,179.600 252.675 C 180.370 252.755,182.260 253.071,183.800 253.378 C 185.340 253.685,187.820 254.034,189.310 254.154 C 192.397 254.402,194.371 255.164,192.000 255.192 C 190.184 255.214,181.758 254.066,180.181 253.581 C 179.511 253.375,178.071 253.091,176.981 252.948 C 175.892 252.806,174.820 252.555,174.600 252.390 C 174.380 252.225,173.436 251.964,172.502 251.810 C 171.568 251.656,170.712 251.382,170.600 251.200 C 170.488 251.018,169.678 250.748,168.800 250.600 C 167.922 250.452,167.103 250.166,166.978 249.965 C 166.854 249.764,166.478 249.600,166.141 249.600 C 165.805 249.600,164.397 249.076,163.012 248.435 L 160.495 247.270 160.868 245.535 C 161.074 244.581,161.486 242.270,161.784 240.400 C 162.082 238.530,162.536 236.065,162.792 234.921 C 163.048 233.778,163.199 232.338,163.129 231.721 C 163.058 231.105,162.326 234.277,161.503 238.772 C 159.740 248.400,159.498 247.625,164.916 249.731 C 173.235 252.964,185.192 255.583,191.700 255.597 C 193.570 255.601,193.320 254.495,193.595 264.000 L 193.833 272.200 193.916 263.833 C 194.019 253.617,194.491 253.268,194.640 263.299 C 194.699 267.315,194.759 270.735,194.774 270.900 C 194.852 271.797,206.743 271.209,206.898 270.300 C 207.029 269.530,207.114 269.602,207.489 270.800 C 207.840 271.921,207.935 270.549,207.964 263.924 C 207.984 259.372,208.149 255.555,208.332 255.442 C 208.514 255.329,209.846 255.048,211.291 254.817 C 230.749 251.709,241.742 239.934,241.742 222.200 C 241.742 204.653,234.256 196.536,211.877 189.818 C 206.642 188.247,206.660 188.250,206.978 188.765 M213.131 212.245 C 215.245 213.245,218.235 215.594,217.399 215.598 C 217.178 215.599,216.111 214.970,215.028 214.200 C 213.945 213.430,212.821 212.800,212.530 212.800 C 212.238 212.800,212.000 212.646,212.000 212.458 C 212.000 212.270,211.415 211.928,210.700 211.699 C 209.899 211.442,209.692 211.266,210.161 211.241 C 210.580 211.218,211.916 211.670,213.131 212.245 M221.578 223.854 C 221.590 224.544,221.331 225.624,221.002 226.254 C 220.421 227.369,220.405 227.323,220.402 224.550 C 220.401 222.982,220.304 221.093,220.186 220.350 C 219.986 219.091,220.026 219.122,220.764 220.800 C 221.199 221.790,221.565 223.164,221.578 223.854 M240.612 229.500 C 240.458 230.765,240.167 231.971,239.966 232.180 C 239.765 232.389,239.594 232.839,239.586 233.180 C 239.579 233.521,239.225 234.520,238.800 235.400 C 238.375 236.280,238.021 237.148,238.014 237.329 C 238.006 237.509,237.706 237.951,237.347 238.310 C 236.512 239.145,236.828 237.999,238.252 235.028 C 238.772 233.944,239.513 231.740,239.899 230.130 C 240.742 226.610,240.991 226.391,240.612 229.500 M217.389 233.568 C 216.521 234.413,210.237 237.663,209.722 237.534 C 209.545 237.489,208.397 237.672,207.171 237.940 C 205.263 238.357,199.773 238.306,199.334 237.867 C 199.255 237.788,201.379 237.606,204.054 237.462 C 206.729 237.318,209.125 237.028,209.379 236.818 C 209.632 236.607,210.596 236.314,211.520 236.166 C 212.444 236.019,213.200 235.741,213.200 235.549 C 213.200 235.357,213.443 235.200,213.741 235.200 C 214.038 235.200,214.983 234.672,215.841 234.027 C 217.609 232.698,218.578 232.410,217.389 233.568 M193.604 237.449 C 196.242 237.598,198.400 237.842,198.400 237.991 C 198.400 238.282,193.389 238.190,191.400 237.862 C 190.740 237.754,189.615 237.650,188.900 237.632 C 188.185 237.615,187.600 237.401,187.600 237.157 C 187.600 236.914,187.872 236.819,188.204 236.946 C 188.536 237.074,190.966 237.300,193.604 237.449 M229.000 247.388 C 227.433 248.672,226.822 248.694,228.278 247.413 C 228.895 246.870,229.580 246.420,229.800 246.415 C 230.020 246.409,229.660 246.847,229.000 247.388 M226.599 248.801 C 226.330 249.236,223.088 250.800,222.455 250.800 C 222.242 250.800,222.007 250.965,221.933 251.167 C 221.860 251.368,221.080 251.641,220.200 251.773 C 218.664 252.004,218.688 251.978,220.800 251.126 C 222.010 250.638,223.720 249.844,224.600 249.361 C 226.404 248.371,226.962 248.215,226.599 248.801 M213.500 253.876 C 213.115 253.976,212.485 253.976,212.100 253.876 C 211.715 253.775,212.030 253.693,212.800 253.693 C 213.570 253.693,213.885 253.775,213.500 253.876 M210.300 254.276 C 209.915 254.376,209.285 254.376,208.900 254.276 C 208.515 254.175,208.830 254.093,209.600 254.093 C 210.370 254.093,210.685 254.175,210.300 254.276 M207.569 262.900 C 207.547 268.746,206.896 271.996,206.728 267.100 C 206.408 257.783,206.540 254.950,207.240 256.047 C 207.435 256.351,207.583 259.435,207.569 262.900 M194.601 271.998 C 194.438 272.262,196.597 272.388,200.876 272.366 C 205.081 272.343,207.001 272.212,206.279 271.995 C 204.658 271.508,194.903 271.511,194.601 271.998 " stroke="none" fill="#acd4e4" fill-rule="evenodd"></path><path id="path8" d="M196.100 125.096 C 197.365 125.175,199.435 125.175,200.700 125.096 C 201.965 125.016,200.930 124.951,198.400 124.951 C 195.870 124.951,194.835 125.016,196.100 125.096 M208.109 131.200 C 208.109 132.190,208.187 132.595,208.282 132.100 C 208.378 131.605,208.378 130.795,208.282 130.300 C 208.187 129.805,208.109 130.210,208.109 131.200 M304.501 137.400 C 304.505 138.280,304.587 138.593,304.683 138.095 C 304.779 137.598,304.775 136.878,304.675 136.495 C 304.575 136.113,304.496 136.520,304.501 137.400 M94.983 153.000 C 94.983 162.020,95.035 165.767,95.099 161.327 C 95.164 156.887,95.164 149.507,95.100 144.927 C 95.035 140.347,94.983 143.980,94.983 153.000 M208.101 139.800 C 208.105 140.680,208.187 140.993,208.283 140.495 C 208.379 139.998,208.375 139.278,208.275 138.895 C 208.175 138.513,208.096 138.920,208.101 139.800 M94.977 181.200 C 94.977 187.690,95.032 190.345,95.099 187.100 C 95.166 183.855,95.166 178.545,95.099 175.300 C 95.032 172.055,94.977 174.710,94.977 181.200 M94.901 200.600 C 94.905 201.480,94.987 201.793,95.083 201.295 C 95.179 200.798,95.175 200.078,95.075 199.695 C 94.975 199.313,94.896 199.720,94.901 200.600 M94.981 240.000 C 94.981 248.030,95.034 251.315,95.099 247.300 C 95.165 243.285,95.165 236.715,95.099 232.700 C 95.034 228.685,94.981 231.970,94.981 240.000 M94.937 259.000 C 94.939 260.760,95.009 261.430,95.093 260.489 C 95.178 259.549,95.177 258.109,95.091 257.289 C 95.005 256.470,94.936 257.240,94.937 259.000 " stroke="none" fill="#dcdcd4" fill-rule="evenodd"></path></g></svg>